<svg width="285" height="276" viewBox="0 0 285 276" fill="none" xmlns="http://www.w3.org/2000/svg">
<path d="M154.5 95.4335L0 250.933C0 250.933 4.92318 261.149 10 265.933C15.0768 270.717 26 275.433 26 275.433L179.5 119.433L189 128.5L213.931 104.5C213.931 104.5 236.944 125.568 251.498 150.933C266.052 176.298 270.498 239.968 272.998 239.433C275.498 238.897 284.998 208.432 284.998 177.433C284.998 146.433 268.498 106.933 268.498 106.933L237.498 77.5306L248.998 65.5306C251.998 61.0301 248.998 57.0306 248.998 57.0306L213.998 24.0306C213.998 24.0306 209.998 19.303 205.998 24.0306L194.998 37.0306L171.498 14.9329C171.498 14.9329 123.998 -2.96883 83.9978 0.429006C43.9978 3.82684 22.9978 25.9332 24.4978 27.4329C25.9978 28.9326 87.9405 21.9642 115.998 31.4329C144.055 40.9016 168.931 60.5 168.931 60.5L145.431 86L154.5 95.4335Z" fill="black"/>
</svg>
