<?xml version="1.0" standalone="no"?>
<!DOCTYPE svg PUBLIC "-//W3C//DTD SVG 20010904//EN"
 "http://www.w3.org/TR/2001/REC-SVG-20010904/DTD/svg10.dtd">
<svg version="1.0" xmlns="http://www.w3.org/2000/svg"
 width="685.000000pt" height="685.000000pt" viewBox="0 0 685.000000 685.000000"
 preserveAspectRatio="xMidYMid meet">
<metadata>
Created by potrace 1.14, written by Peter Selinger 2001-2017
</metadata>
<g transform="translate(0.000000,685.000000) scale(0.100000,-0.100000)"
fill="#000000" stroke="none">
<path d="M3199 6836 c-2 -2 -44 -7 -94 -10 -49 -4 -97 -9 -105 -11 -8 -2 -35
-7 -60 -10 -38 -5 -126 -20 -238 -41 -67 -13 -272 -70 -377 -105 -113 -39
-135 -47 -219 -84 -19 -8 -37 -15 -40 -15 -12 0 -208 -98 -316 -158 -190 -106
-431 -275 -585 -412 -70 -61 -289 -283 -335 -339 -25 -29 -50 -59 -55 -65 -35
-37 -235 -312 -235 -322 0 -3 -10 -20 -22 -37 -13 -18 -28 -41 -34 -52 -6 -11
-30 -52 -52 -91 -189 -329 -349 -803 -397 -1174 -4 -30 -9 -64 -11 -74 -26
-141 -25 -652 2 -836 5 -39 41 -250 49 -291 21 -113 127 -463 146 -484 5 -5 9
-15 9 -22 0 -36 140 -330 248 -519 155 -271 480 -652 737 -865 50 -41 92 -76
95 -79 41 -44 433 -300 460 -300 4 0 10 -3 12 -7 12 -28 524 -249 619 -268 9
-2 47 -13 85 -24 61 -18 173 -46 229 -57 89 -17 125 -24 155 -28 19 -3 44 -7
55 -10 11 -2 49 -7 85 -11 36 -4 79 -9 95 -12 58 -8 521 -11 590 -3 39 5 97
11 130 14 73 6 124 14 191 27 28 5 64 12 80 15 16 3 49 10 74 15 25 6 54 13
65 15 11 2 52 13 90 24 39 11 79 23 90 25 34 8 191 63 294 104 305 121 636
319 891 530 110 92 127 108 250 231 224 224 357 395 524 671 81 135 216 410
242 494 2 6 17 48 35 95 61 166 138 461 154 591 3 24 7 58 10 74 12 72 14 88
22 172 10 112 10 490 0 608 -10 119 -41 318 -67 430 -11 50 -23 101 -26 115
-2 14 -10 41 -16 60 -7 19 -13 41 -14 47 -7 42 -81 253 -115 330 -11 23 -19
45 -19 48 0 18 -147 306 -207 407 -67 111 -205 314 -241 354 -9 10 -46 55 -82
99 -102 127 -323 344 -467 460 -393 317 -896 566 -1358 671 -33 7 -80 18 -105
23 -57 13 -93 20 -155 27 -27 4 -53 8 -56 10 -4 2 -37 6 -75 10 -38 3 -80 8
-94 11 -28 6 -536 14 -541 9z"/>
</g>
</svg>
